<svg width="293" height="77" viewBox="0 0 293 77" fill="none" xmlns="http://www.w3.org/2000/svg">
<path d="M15.5651 25.4762C10.1726 31.7922 7.39856 39.1129 5.62588 43.0406C10.3282 38.0338 12.3275 37.0324 12.3275 37.0324C12.3275 37.0324 6.70505 47.1847 8.80249 63.0306C9.13064 44.0589 20.3249 37.9052 20.3249 37.9052C13.4642 53.4331 21.5089 64.2856 21.5089 64.2856C18.8229 56.4067 20.1219 49.6881 22.2024 44.8234C18.427 61.4304 44.2053 69.3973 44.2053 69.3973C44.2053 69.3973 36.4684 63.5245 31.6206 54.5731C53.999 74.9014 87.8355 69.7728 87.8355 69.7728C69.2257 69.1368 57.8691 61.082 53.5152 57.293C57.5883 60.2227 69.1682 65.3479 100.028 64.7356C137.315 64.0015 144.517 76.4034 144.517 76.4034C144.517 76.4034 141.625 57.6787 91.9356 57.425C59.9429 57.2592 56.9963 44.8369 59.4523 36.7753C61.9287 28.6528 73.2346 27.7834 76.6683 35.5473C76.7292 35.6792 76.7833 35.8078 76.8374 35.9431C84.2022 27.2725 75.5316 20.4559 70.5958 17.4856C53.2547 -1.72967 38.4306 0.0430111 38.4306 0.0430111C38.4306 0.0430111 51.6377 0.936115 62.1317 12.5803C58.5389 9.85024 57.6763 9.34618 57.6763 9.34618C57.9977 10.6588 58.5254 11.88 59.2629 13.0133C56.8272 10.2968 53.5389 7.59719 47.0368 9.41722L51.4279 10.2799C51.4279 10.2799 50.0612 17.1101 61.1371 19.0485C61.1371 19.0485 43.9549 18.6189 30.7275 30.6927C37.3209 28.2536 44.1038 26.552 51.0693 25.5912C51.0693 25.5912 44.5267 27.1 40.2032 37.1677C48.3257 29.8335 50.3386 28.8253 50.3386 28.8253C50.3386 28.8253 47.6796 32.4925 46.6749 39.8944C46.6749 39.8944 48.1837 36.0852 53.3596 30.7672C52.0639 40.9025 52.639 48.521 58.5356 53.0542C64.4287 57.584 79.5979 60.4493 79.5979 60.4493C79.5979 60.4493 54.3643 62.0292 43.7993 42.2625C45.3859 52.6245 48.5423 56.86 48.5423 56.86C48.5423 56.86 39.415 52.4689 38.8331 40.0399C36.4583 49.6002 38.6166 54.272 38.6166 54.272C38.6166 54.272 32.0029 47.2287 36.8203 36.2273C36.8203 36.2273 21.8202 43.5413 30.2945 58.9879C19.2288 46.251 27.1483 37.0121 27.6727 36.4235L26.6815 37.5128C27.2837 36.8024 27.6727 36.4235 27.6727 36.4235C26.306 37.2252 25.0847 38.2029 24.0022 39.3599C22.9196 40.5169 22.0265 41.8058 21.3229 43.2233C23.2545 30.7401 36.5767 19.7251 36.5767 19.7251C26.4075 22.2421 17.7843 28.619 11.8742 35.2902C15.7883 24.0114 34.5266 13.7576 34.5266 13.7576C34.5266 13.7576 19.6009 17.1033 10.1827 27.5432C10.1827 27.5432 17.6422 12.719 40.0138 7.87459C40.0138 7.87459 26.1267 6.75483 15.5887 14.1128C15.5887 14.1128 23.6098 3.76428 44.6755 3.39215C44.6755 3.39215 23.4643 -4.19585 2.65902 21.0005C2.65902 21.0005 10.5583 17.9186 16.7186 15.9937C5.70369 22.9288 0 36.7956 0 36.7956C0 36.7956 9.32347 29.1738 15.5651 25.4762ZM63.6438 17.1033C62.974 16.8462 62.3888 16.4606 61.8881 15.9464C62.4395 16.3861 63.0214 16.7718 63.6438 17.1033ZM58.6066 25.7299C61.1134 24.9349 63.6675 24.3429 66.269 23.9572C66.269 23.9572 61.4652 22.1846 51.5159 23.9572C62.4361 20.1277 72.2603 22.2996 72.2603 22.2996L67.8117 18.0269C67.8117 18.0269 78.7928 21.3456 77.1317 31.7516C77.1317 31.7448 72.8455 23.2231 58.6066 25.7401V25.7299Z" fill="url(#paint0_linear_12_7)"/>
<path d="M15.5651 25.4762C10.1726 31.7922 7.39856 39.1129 5.62588 43.0406C10.3282 38.0338 12.3275 37.0324 12.3275 37.0324C12.3275 37.0324 6.70505 47.1847 8.80249 63.0306C9.13064 44.0589 20.3249 37.9052 20.3249 37.9052C13.4642 53.4331 21.5089 64.2856 21.5089 64.2856C18.8229 56.4067 20.1219 49.6881 22.2024 44.8234C18.427 61.4304 44.2053 69.3973 44.2053 69.3973C44.2053 69.3973 36.4684 63.5245 31.6206 54.5731C53.999 74.9014 87.8355 69.7728 87.8355 69.7728C69.2257 69.1368 57.8691 61.082 53.5152 57.293C57.5883 60.2227 69.1682 65.3479 100.028 64.7356C137.315 64.0015 144.517 76.4034 144.517 76.4034C144.517 76.4034 141.625 57.6787 91.9356 57.425C59.9429 57.2592 56.9963 44.8369 59.4523 36.7753C61.9287 28.6528 73.2346 27.7834 76.6683 35.5473C76.7292 35.6792 76.7833 35.8078 76.8374 35.9431C84.2022 27.2725 75.5316 20.4559 70.5958 17.4856C53.2547 -1.72967 38.4306 0.0430111 38.4306 0.0430111C38.4306 0.0430111 51.6377 0.936115 62.1317 12.5803C58.5389 9.85024 57.6763 9.34618 57.6763 9.34618C57.9977 10.6588 58.5254 11.88 59.2629 13.0133C56.8272 10.2968 53.5389 7.59719 47.0368 9.41722L51.4279 10.2799C51.4279 10.2799 50.0612 17.1101 61.1371 19.0485C61.1371 19.0485 43.9549 18.6189 30.7275 30.6927C37.3209 28.2536 44.1038 26.552 51.0693 25.5912C51.0693 25.5912 44.5267 27.1 40.2032 37.1677C48.3257 29.8335 50.3386 28.8253 50.3386 28.8253C50.3386 28.8253 47.6796 32.4925 46.6749 39.8944C46.6749 39.8944 48.1837 36.0852 53.3596 30.7672C52.0639 40.9025 52.639 48.521 58.5356 53.0542C64.4287 57.584 79.5979 60.4493 79.5979 60.4493C79.5979 60.4493 54.3643 62.0292 43.7993 42.2625C45.3859 52.6245 48.5423 56.86 48.5423 56.86C48.5423 56.86 39.415 52.4689 38.8331 40.0399C36.4583 49.6002 38.6166 54.272 38.6166 54.272C38.6166 54.272 32.0029 47.2287 36.8203 36.2273C36.8203 36.2273 21.8202 43.5413 30.2945 58.9879C19.2288 46.251 27.1483 37.0121 27.6727 36.4235L26.6815 37.5128C27.2837 36.8024 27.6727 36.4235 27.6727 36.4235C26.306 37.2252 25.0847 38.2029 24.0022 39.3599C22.9196 40.5169 22.0265 41.8058 21.3229 43.2233C23.2545 30.7401 36.5767 19.7251 36.5767 19.7251C26.4075 22.2421 17.7843 28.619 11.8742 35.2902C15.7883 24.0114 34.5266 13.7576 34.5266 13.7576C34.5266 13.7576 19.6009 17.1033 10.1827 27.5432C10.1827 27.5432 17.6422 12.719 40.0138 7.87459C40.0138 7.87459 26.1267 6.75483 15.5887 14.1128C15.5887 14.1128 23.6098 3.76428 44.6755 3.39215C44.6755 3.39215 23.4643 -4.19585 2.65902 21.0005C2.65902 21.0005 10.5583 17.9186 16.7186 15.9937C5.70369 22.9288 0 36.7956 0 36.7956C0 36.7956 9.32347 29.1738 15.5651 25.4762ZM63.6438 17.1033C62.974 16.8462 62.3888 16.4606 61.8881 15.9464C62.4395 16.3861 63.0214 16.7718 63.6438 17.1033ZM58.6066 25.7299C61.1134 24.9349 63.6675 24.3429 66.269 23.9572C66.269 23.9572 61.4652 22.1846 51.5159 23.9572C62.4361 20.1277 72.2603 22.2996 72.2603 22.2996L67.8117 18.0269C67.8117 18.0269 78.7928 21.3456 77.1317 31.7516C77.1317 31.7448 72.8455 23.2231 58.6066 25.7401V25.7299Z" fill="black" fill-opacity="0.2"/>
<path d="M93.6 28.728H106.48V33.968H93.6C93.4133 33.968 93.32 34.0613 93.32 34.248V51.928H88.08V34.248C88.08 32.728 88.6133 31.4346 89.68 30.368C90.7733 29.2746 92.08 28.728 93.6 28.728ZM109.213 51.928V28.728H114.453V51.928H109.213ZM109.213 21.128H114.453V26.408H109.213V21.128ZM136.669 28.728C138.189 28.728 139.482 29.2746 140.549 30.368C141.642 31.4346 142.189 32.728 142.189 34.248V46.408C142.189 47.928 141.642 49.2346 140.549 50.328C139.482 51.3946 138.189 51.928 136.669 51.928H123.869V61.128H118.629V28.728H136.669ZM136.949 46.408V34.248C136.949 34.0613 136.855 33.968 136.669 33.968H124.149C123.962 33.968 123.869 34.0613 123.869 34.248V46.408C123.869 46.5946 123.962 46.688 124.149 46.688H136.669C136.855 46.688 136.949 46.5946 136.949 46.408ZM159.431 33.968H150.391V46.408C150.391 46.5946 150.485 46.688 150.671 46.688H159.431V51.928H150.671C149.125 51.928 147.818 51.3946 146.751 50.328C145.685 49.2346 145.151 47.928 145.151 46.408V21.128H150.391V28.728H159.431V33.968ZM168.052 28.728H180.572C182.092 28.728 183.386 29.2746 184.452 30.368C185.546 31.4346 186.092 32.728 186.092 34.248V46.408C186.092 47.928 185.546 49.2346 184.452 50.328C183.386 51.3946 182.092 51.928 180.572 51.928H168.052C166.532 51.928 165.226 51.3946 164.132 50.328C163.066 49.2346 162.532 47.928 162.532 46.408V34.248C162.532 32.728 163.066 31.4346 164.132 30.368C165.226 29.2746 166.532 28.728 168.052 28.728ZM180.572 33.968H168.052C167.866 33.968 167.772 34.0613 167.772 34.248V46.408C167.772 46.5946 167.866 46.688 168.052 46.688H180.572C180.759 46.688 180.852 46.5946 180.852 46.408V34.248C180.852 34.0613 180.759 33.968 180.572 33.968ZM228.188 23.128H233.788L223.308 51.928H219.148L211.668 31.488L204.188 51.928H200.068L189.588 23.128H195.188L202.148 42.128L209.108 23.128H214.268L221.228 42.128L228.188 23.128ZM252.252 28.728C253.772 28.728 255.065 29.2746 256.132 30.368C257.225 31.4346 257.772 32.728 257.772 34.248V42.968H239.452V46.408C239.452 46.5946 239.545 46.688 239.732 46.688H257.772V51.928H239.732C238.212 51.928 236.905 51.3946 235.812 50.328C234.745 49.2346 234.212 47.928 234.212 46.408V34.248C234.212 32.728 234.745 31.4346 235.812 30.368C236.905 29.2746 238.212 28.728 239.732 28.728H252.252ZM239.452 37.688H252.532V34.248C252.532 34.0613 252.439 33.968 252.252 33.968H239.732C239.545 33.968 239.452 34.0613 239.452 34.248V37.688ZM280.067 28.728C281.587 28.728 282.881 29.2746 283.947 30.368C285.041 31.4346 285.587 32.728 285.587 34.248V46.408C285.587 47.928 285.041 49.2346 283.947 50.328C282.881 51.3946 281.587 51.928 280.067 51.928H262.027V21.128H267.267V28.728H280.067ZM280.347 46.408V34.248C280.347 34.0613 280.254 33.968 280.067 33.968H267.547C267.361 33.968 267.267 34.0613 267.267 34.248V46.408C267.267 46.5946 267.361 46.688 267.547 46.688H280.067C280.254 46.688 280.347 46.5946 280.347 46.408Z" fill="url(#paint1_linear_12_7)"/>
<path d="M93.6 28.728H106.48V33.968H93.6C93.4133 33.968 93.32 34.0613 93.32 34.248V51.928H88.08V34.248C88.08 32.728 88.6133 31.4346 89.68 30.368C90.7733 29.2746 92.08 28.728 93.6 28.728ZM109.213 51.928V28.728H114.453V51.928H109.213ZM109.213 21.128H114.453V26.408H109.213V21.128ZM136.669 28.728C138.189 28.728 139.482 29.2746 140.549 30.368C141.642 31.4346 142.189 32.728 142.189 34.248V46.408C142.189 47.928 141.642 49.2346 140.549 50.328C139.482 51.3946 138.189 51.928 136.669 51.928H123.869V61.128H118.629V28.728H136.669ZM136.949 46.408V34.248C136.949 34.0613 136.855 33.968 136.669 33.968H124.149C123.962 33.968 123.869 34.0613 123.869 34.248V46.408C123.869 46.5946 123.962 46.688 124.149 46.688H136.669C136.855 46.688 136.949 46.5946 136.949 46.408ZM159.431 33.968H150.391V46.408C150.391 46.5946 150.485 46.688 150.671 46.688H159.431V51.928H150.671C149.125 51.928 147.818 51.3946 146.751 50.328C145.685 49.2346 145.151 47.928 145.151 46.408V21.128H150.391V28.728H159.431V33.968ZM168.052 28.728H180.572C182.092 28.728 183.386 29.2746 184.452 30.368C185.546 31.4346 186.092 32.728 186.092 34.248V46.408C186.092 47.928 185.546 49.2346 184.452 50.328C183.386 51.3946 182.092 51.928 180.572 51.928H168.052C166.532 51.928 165.226 51.3946 164.132 50.328C163.066 49.2346 162.532 47.928 162.532 46.408V34.248C162.532 32.728 163.066 31.4346 164.132 30.368C165.226 29.2746 166.532 28.728 168.052 28.728ZM180.572 33.968H168.052C167.866 33.968 167.772 34.0613 167.772 34.248V46.408C167.772 46.5946 167.866 46.688 168.052 46.688H180.572C180.759 46.688 180.852 46.5946 180.852 46.408V34.248C180.852 34.0613 180.759 33.968 180.572 33.968ZM228.188 23.128H233.788L223.308 51.928H219.148L211.668 31.488L204.188 51.928H200.068L189.588 23.128H195.188L202.148 42.128L209.108 23.128H214.268L221.228 42.128L228.188 23.128ZM252.252 28.728C253.772 28.728 255.065 29.2746 256.132 30.368C257.225 31.4346 257.772 32.728 257.772 34.248V42.968H239.452V46.408C239.452 46.5946 239.545 46.688 239.732 46.688H257.772V51.928H239.732C238.212 51.928 236.905 51.3946 235.812 50.328C234.745 49.2346 234.212 47.928 234.212 46.408V34.248C234.212 32.728 234.745 31.4346 235.812 30.368C236.905 29.2746 238.212 28.728 239.732 28.728H252.252ZM239.452 37.688H252.532V34.248C252.532 34.0613 252.439 33.968 252.252 33.968H239.732C239.545 33.968 239.452 34.0613 239.452 34.248V37.688ZM280.067 28.728C281.587 28.728 282.881 29.2746 283.947 30.368C285.041 31.4346 285.587 32.728 285.587 34.248V46.408C285.587 47.928 285.041 49.2346 283.947 50.328C282.881 51.3946 281.587 51.928 280.067 51.928H262.027V21.128H267.267V28.728H280.067ZM280.347 46.408V34.248C280.347 34.0613 280.254 33.968 280.067 33.968H267.547C267.361 33.968 267.267 34.0613 267.267 34.248V46.408C267.267 46.5946 267.361 46.688 267.547 46.688H280.067C280.254 46.688 280.347 46.5946 280.347 46.408Z" fill="black" fill-opacity="0.2"/>
<defs>
<linearGradient id="paint0_linear_12_7" x1="1.19044" y1="-9.26782e-07" x2="62.7134" y2="118.32" gradientUnits="userSpaceOnUse">
<stop stop-color="#C02492"/>
<stop offset="0.4375" stop-color="#AC2199"/>
<stop offset="1" stop-color="#5414B1"/>
</linearGradient>
<linearGradient id="paint1_linear_12_7" x1="87.7051" y1="21.928" x2="97.0606" y2="83.4598" gradientUnits="userSpaceOnUse">
<stop stop-color="#C02492"/>
<stop offset="0.4375" stop-color="#AC2199"/>
<stop offset="1" stop-color="#5414B1"/>
</linearGradient>
</defs>
</svg>
